<svg width="145" height="40" viewBox="0 0 145 40" fill="none" xmlns="http://www.w3.org/2000/svg">
<path d="M0 6C0 2.68629 2.68629 0 6 0H139C142.314 0 145 2.68629 145 6V34C145 37.3137 142.314 40 139 40H6C2.68629 40 0 37.3137 0 34V6Z" fill="#18181B"/>
<path d="M19.334 14L28.6673 20L19.334 26V14Z" stroke="#FAFAFA" stroke-linecap="round" stroke-linejoin="round"/>
<path d="M43.1122 25L40.2884 14.8182H41.9041L43.8878 22.7031H43.9822L46.0455 14.8182H47.6463L49.7095 22.7081H49.804L51.7827 14.8182H53.4034L50.5746 25H49.0284L46.8857 17.3736H46.8061L44.6634 25H43.1122ZM56.1552 25.169C55.6713 25.169 55.2338 25.0795 54.8427 24.9006C54.4516 24.7183 54.1417 24.4548 53.913 24.1101C53.6876 23.7654 53.5749 23.3428 53.5749 22.8423C53.5749 22.4115 53.6578 22.0568 53.8235 21.7784C53.9892 21.5 54.2129 21.2796 54.4947 21.1172C54.7764 20.9548 55.0913 20.8321 55.4393 20.7493C55.7873 20.6664 56.1419 20.6035 56.5032 20.5604C56.9606 20.5073 57.3318 20.4643 57.6168 20.4311C57.9019 20.3946 58.109 20.3366 58.2383 20.2571C58.3675 20.1776 58.4322 20.0483 58.4322 19.8693V19.8345C58.4322 19.4003 58.3095 19.0639 58.0643 18.8253C57.8223 18.5866 57.4611 18.4673 56.9805 18.4673C56.48 18.4673 56.0856 18.5784 55.7972 18.8004C55.5122 19.0192 55.315 19.2628 55.2056 19.5312L53.8086 19.2131C53.9743 18.7491 54.2163 18.3745 54.5344 18.0895C54.8559 17.8011 55.2255 17.5923 55.6431 17.4631C56.0607 17.3305 56.4999 17.2642 56.9606 17.2642C57.2655 17.2642 57.5887 17.3007 57.93 17.3736C58.2747 17.4432 58.5962 17.5724 58.8945 17.7614C59.1961 17.9503 59.4431 18.2204 59.6353 18.5717C59.8275 18.9197 59.9237 19.3722 59.9237 19.929V25H58.4719V23.956H58.4123C58.3162 24.1482 58.172 24.3371 57.9798 24.5227C57.7875 24.7083 57.5406 24.8625 57.239 24.9851C56.9374 25.1077 56.5761 25.169 56.1552 25.169ZM56.4783 23.9759C56.8893 23.9759 57.2406 23.8946 57.5323 23.7322C57.8273 23.5698 58.051 23.3577 58.2035 23.0959C58.3593 22.8307 58.4371 22.5473 58.4371 22.2457V21.2614C58.3841 21.3144 58.2814 21.3641 58.1289 21.4105C57.9798 21.4536 57.8091 21.4917 57.6168 21.5249C57.4246 21.5547 57.2373 21.5829 57.055 21.6094C56.8728 21.6326 56.7203 21.6525 56.5977 21.669C56.3093 21.7055 56.0458 21.7668 55.8072 21.853C55.5719 21.9392 55.3829 22.0634 55.2404 22.2259C55.1012 22.3849 55.0316 22.5971 55.0316 22.8622C55.0316 23.2301 55.1675 23.5085 55.4393 23.6974C55.7111 23.883 56.0574 23.9759 56.4783 23.9759ZM65.4682 17.3636V18.5568H61.2971V17.3636H65.4682ZM62.4157 15.5341H63.9022V22.7578C63.9022 23.0462 63.9453 23.2633 64.0314 23.4091C64.1176 23.5516 64.2286 23.6494 64.3645 23.7024C64.5037 23.7521 64.6545 23.777 64.8169 23.777C64.9363 23.777 65.0407 23.7687 65.1301 23.7521C65.2196 23.7356 65.2892 23.7223 65.339 23.7124L65.6074 24.9403C65.5212 24.9735 65.3986 25.0066 65.2395 25.0398C65.0804 25.0762 64.8816 25.0961 64.6429 25.0994C64.2518 25.1061 63.8873 25.0365 63.5492 24.8906C63.2111 24.7448 62.9377 24.5194 62.7289 24.2145C62.5201 23.9096 62.4157 23.5268 62.4157 23.0661V15.5341ZM70.2472 25.1541C69.508 25.1541 68.8717 24.9867 68.3381 24.652C67.8078 24.3139 67.4001 23.8482 67.1151 23.255C66.83 22.6617 66.6875 21.9822 66.6875 21.2166C66.6875 20.4411 66.8333 19.7566 67.125 19.1634C67.4167 18.5668 67.8277 18.1011 68.358 17.7663C68.8883 17.4316 69.513 17.2642 70.2322 17.2642C70.8123 17.2642 71.3293 17.3719 71.7834 17.5874C72.2375 17.7995 72.6037 18.0978 72.8821 18.4822C73.1638 18.8667 73.3312 19.3158 73.3842 19.8295H71.9375C71.858 19.4716 71.6757 19.1634 71.3906 18.9048C71.1089 18.6463 70.7311 18.517 70.2571 18.517C69.8428 18.517 69.4799 18.6264 69.1683 18.8452C68.8601 19.0606 68.6198 19.3688 68.4474 19.7699C68.2751 20.1676 68.1889 20.6383 68.1889 21.1818C68.1889 21.7386 68.2734 22.2192 68.4425 22.6236C68.6115 23.0279 68.8501 23.3411 69.1584 23.5632C69.4699 23.7853 69.8362 23.8963 70.2571 23.8963C70.5388 23.8963 70.794 23.8449 71.0227 23.7422C71.2547 23.6361 71.4486 23.4853 71.6044 23.2898C71.7635 23.0942 71.8745 22.8589 71.9375 22.5838H73.3842C73.3312 23.0777 73.1705 23.5185 72.902 23.9062C72.6335 24.294 72.2739 24.599 71.8232 24.821C71.3757 25.0431 70.8504 25.1541 70.2472 25.1541ZM76.4604 20.4659V25H74.9739V14.8182H76.4405V18.6065H76.535C76.714 18.1955 76.9874 17.8691 77.3553 17.6271C77.7232 17.3852 78.2038 17.2642 78.7971 17.2642C79.3207 17.2642 79.7781 17.3719 80.1692 17.5874C80.5636 17.8028 80.8685 18.1243 81.084 18.5518C81.3027 18.9761 81.4121 19.5064 81.4121 20.1428V25H79.9256V20.3217C79.9256 19.7616 79.7814 19.3274 79.4931 19.0192C79.2047 18.7076 78.8037 18.5518 78.29 18.5518C77.9386 18.5518 77.6238 18.6264 77.3453 18.7756C77.0703 18.9247 76.8532 19.1435 76.6941 19.4318C76.5383 19.7169 76.4604 20.0616 76.4604 20.4659ZM86.718 16.1406V14.8182H94.598V16.1406H91.4212V25H89.8899V16.1406H86.718ZM95.427 25V17.3636H96.8638V18.5767H96.9434C97.0826 18.1657 97.3278 17.8426 97.6792 17.6072C98.0338 17.3686 98.4348 17.2493 98.8823 17.2493C98.9751 17.2493 99.0845 17.2526 99.2104 17.2592C99.3397 17.2659 99.4408 17.2741 99.5137 17.2841V18.706C99.454 18.6894 99.348 18.6712 99.1955 18.6513C99.043 18.6281 98.8906 18.6165 98.7381 18.6165C98.3868 18.6165 98.0736 18.6911 97.7985 18.8402C97.5267 18.986 97.3113 19.1899 97.1522 19.4517C96.9931 19.7102 96.9135 20.0052 96.9135 20.3366V25H95.427ZM102.954 25.169C102.47 25.169 102.033 25.0795 101.642 24.9006C101.25 24.7183 100.941 24.4548 100.712 24.1101C100.486 23.7654 100.374 23.3428 100.374 22.8423C100.374 22.4115 100.457 22.0568 100.622 21.7784C100.788 21.5 101.012 21.2796 101.294 21.1172C101.575 20.9548 101.89 20.8321 102.238 20.7493C102.586 20.6664 102.941 20.6035 103.302 20.5604C103.759 20.5073 104.131 20.4643 104.416 20.4311C104.701 20.3946 104.908 20.3366 105.037 20.2571C105.166 20.1776 105.231 20.0483 105.231 19.8693V19.8345C105.231 19.4003 105.108 19.0639 104.863 18.8253C104.621 18.5866 104.26 18.4673 103.779 18.4673C103.279 18.4673 102.884 18.5784 102.596 18.8004C102.311 19.0192 102.114 19.2628 102.004 19.5312L100.607 19.2131C100.773 18.7491 101.015 18.3745 101.333 18.0895C101.655 17.8011 102.024 17.5923 102.442 17.4631C102.86 17.3305 103.299 17.2642 103.759 17.2642C104.064 17.2642 104.387 17.3007 104.729 17.3736C105.074 17.4432 105.395 17.5724 105.693 17.7614C105.995 17.9503 106.242 18.2204 106.434 18.5717C106.626 18.9197 106.722 19.3722 106.722 19.929V25H105.271V23.956H105.211C105.115 24.1482 104.971 24.3371 104.779 24.5227C104.586 24.7083 104.339 24.8625 104.038 24.9851C103.736 25.1077 103.375 25.169 102.954 25.169ZM103.277 23.9759C103.688 23.9759 104.039 23.8946 104.331 23.7322C104.626 23.5698 104.85 23.3577 105.002 23.0959C105.158 22.8307 105.236 22.5473 105.236 22.2457V21.2614C105.183 21.3144 105.08 21.3641 104.928 21.4105C104.779 21.4536 104.608 21.4917 104.416 21.5249C104.223 21.5547 104.036 21.5829 103.854 21.6094C103.672 21.6326 103.519 21.6525 103.396 21.669C103.108 21.7055 102.845 21.7668 102.606 21.853C102.371 21.9392 102.182 22.0634 102.039 22.2259C101.9 22.3849 101.83 22.5971 101.83 22.8622C101.83 23.2301 101.966 23.5085 102.238 23.6974C102.51 23.883 102.856 23.9759 103.277 23.9759ZM108.702 25V17.3636H110.189V25H108.702ZM109.453 16.1854C109.195 16.1854 108.973 16.0992 108.787 15.9268C108.605 15.7512 108.513 15.5424 108.513 15.3004C108.513 15.0552 108.605 14.8464 108.787 14.674C108.973 14.4983 109.195 14.4105 109.453 14.4105C109.712 14.4105 109.932 14.4983 110.114 14.674C110.3 14.8464 110.393 15.0552 110.393 15.3004C110.393 15.5424 110.3 15.7512 110.114 15.9268C109.932 16.0992 109.712 16.1854 109.453 16.1854ZM113.675 14.8182V25H112.189V14.8182H113.675ZM118.966 25.1541C118.214 25.1541 117.566 24.9934 117.022 24.6719C116.482 24.3471 116.065 23.8913 115.77 23.3047C115.478 22.7147 115.332 22.0237 115.332 21.2315C115.332 20.4493 115.478 19.7599 115.77 19.1634C116.065 18.5668 116.475 18.1011 117.002 17.7663C117.533 17.4316 118.153 17.2642 118.862 17.2642C119.293 17.2642 119.71 17.3355 120.115 17.478C120.519 17.6205 120.882 17.8442 121.203 18.1491C121.525 18.4541 121.779 18.8501 121.964 19.3374C122.15 19.8213 122.243 20.4096 122.243 21.1023V21.6293H116.172V20.5156H120.786C120.786 20.1245 120.706 19.7782 120.547 19.4766C120.388 19.1716 120.164 18.9313 119.876 18.7557C119.591 18.58 119.256 18.4922 118.872 18.4922C118.454 18.4922 118.09 18.5949 117.778 18.8004C117.47 19.0026 117.231 19.2678 117.062 19.5959C116.896 19.9207 116.814 20.2737 116.814 20.6548V21.5249C116.814 22.0353 116.903 22.4695 117.082 22.8274C117.264 23.1854 117.518 23.4588 117.843 23.6477C118.167 23.8333 118.547 23.9261 118.981 23.9261C119.263 23.9261 119.52 23.8864 119.752 23.8068C119.984 23.724 120.184 23.6013 120.353 23.4389C120.522 23.2765 120.652 23.076 120.741 22.8374L122.148 23.0909C122.035 23.5052 121.833 23.8681 121.542 24.1797C121.253 24.4879 120.89 24.7282 120.453 24.9006C120.019 25.0696 119.523 25.1541 118.966 25.1541ZM123.892 25V17.3636H125.329V18.5767H125.408C125.547 18.1657 125.793 17.8426 126.144 17.6072C126.499 17.3686 126.9 17.2493 127.347 17.2493C127.44 17.2493 127.549 17.2526 127.675 17.2592C127.805 17.2659 127.906 17.2741 127.979 17.2841V18.706C127.919 18.6894 127.813 18.6712 127.66 18.6513C127.508 18.6281 127.355 18.6165 127.203 18.6165C126.852 18.6165 126.538 18.6911 126.263 18.8402C125.992 18.986 125.776 19.1899 125.617 19.4517C125.458 19.7102 125.378 20.0052 125.378 20.3366V25H123.892Z" fill="#FAFAFA"/>
</svg>
